<svg width="16" height="16" viewBox="0 0 16 16" fill="none" xmlns="http://www.w3.org/2000/svg">
<g clip-path="url(#clip0_57_563)">
<path d="M8.34933 6C8.52615 6 8.69571 5.92976 8.82074 5.80474C8.94576 5.67971 9.016 5.51014 9.016 5.33333L9.016 3.33333C9.016 2.8029 9.22671 2.29419 9.60179 1.91912C9.97686 1.54405 10.4856 1.33333 11.016 1.33333L12.6667 1.33333C13.1971 1.33333 13.7058 1.54405 14.0809 1.91912C14.456 2.29419 14.6667 2.8029 14.6667 3.33333L14.6667 12.6667C14.6667 13.1971 14.456 13.7058 14.0809 14.0809C13.7058 14.456 13.1971 14.6667 12.6667 14.6667L11.016 14.6667C10.4856 14.6667 9.97686 14.456 9.60179 14.0809C9.22671 13.7058 9.016 13.1971 9.016 12.6667L9.016 10.6667C9.016 10.4899 8.94576 10.3203 8.82074 10.1953C8.69571 10.0702 8.52614 10 8.34933 10C8.17252 10 8.00295 10.0702 7.87793 10.1953C7.75291 10.3203 7.68267 10.4899 7.68267 10.6667L7.68267 12.6667C7.68373 13.5504 8.03525 14.3976 8.66015 15.0225C9.28504 15.6474 10.1323 15.9989 11.016 16L12.6667 16C13.5504 15.9989 14.3976 15.6474 15.0225 15.0225C15.6474 14.3976 15.9989 13.5504 16 12.6667L16 3.33333C15.9989 2.4496 15.6474 1.60237 15.0225 0.977479C14.3976 0.352587 13.5504 0.00105788 12.6667 -7.68246e-07L11.016 -9.12552e-07C10.1323 0.00105758 9.28504 0.352586 8.66015 0.977478C8.03526 1.60237 7.68373 2.4496 7.68267 3.33333L7.68267 5.33333C7.68267 5.51014 7.75291 5.67971 7.87793 5.80474C8.00295 5.92976 8.17252 6 8.34933 6Z" fill="#161616"/>
<path d="M0.755291 9.41388L3.81262 12.4712C3.87412 12.5349 3.94769 12.5857 4.02902 12.6206C4.11036 12.6556 4.19784 12.6739 4.28636 12.6747C4.37488 12.6755 4.46266 12.6586 4.54459 12.6251C4.62653 12.5916 4.70096 12.5421 4.76356 12.4795C4.82615 12.4169 4.87565 12.3425 4.90917 12.2605C4.94269 12.1786 4.95956 12.0908 4.95879 12.0023C4.95802 11.9138 4.93963 11.8263 4.90469 11.7449C4.86975 11.6636 4.81896 11.59 4.75529 11.5286L1.91396 8.68655L12 8.66655C12.1768 8.66655 12.3463 8.59631 12.4714 8.47129C12.5964 8.34626 12.6666 8.1767 12.6666 7.99988C12.6666 7.82307 12.5964 7.6535 12.4714 7.52848C12.3463 7.40346 12.1768 7.33322 12 7.33322L1.87463 7.35388L4.75663 4.47122C4.8203 4.40972 4.87109 4.33616 4.90603 4.25482C4.94097 4.17348 4.95936 4.086 4.96013 3.99748C4.9609 3.90897 4.94403 3.82118 4.91051 3.73925C4.87699 3.65732 4.82748 3.58288 4.76489 3.52029C4.70229 3.45769 4.62786 3.40819 4.54593 3.37467C4.464 3.34115 4.37621 3.32428 4.28769 3.32505C4.19917 3.32582 4.11169 3.34421 4.03036 3.37915C3.94902 3.41409 3.87546 3.46488 3.81396 3.52855L0.756625 6.58588C0.381506 6.96076 0.170635 7.46928 0.170385 7.99961C0.170135 8.52994 0.380526 9.03865 0.755291 9.41388Z" fill="#161616"/>
</g>
<defs>
<clipPath id="clip0_57_563">
<rect width="16" height="16" fill="white" transform="translate(16 16) rotate(-180)"/>
</clipPath>
</defs>
</svg>
