<svg width="20" height="16" viewBox="0 0 20 16" fill="none" xmlns="http://www.w3.org/2000/svg">
<path d="M9.76904 7C11.4259 7 12.769 5.65685 12.769 4C12.769 2.34315 11.4259 1 9.76904 1C8.11219 1 6.76904 2.34315 6.76904 4C6.76904 5.65685 8.11219 7 9.76904 7Z" stroke="#602FB0" stroke-width="2"/>
<path d="M2.26843 4.93635C2.49588 4.05256 3.29273 3.43481 4.20532 3.43481H15.3327C16.2453 3.43481 17.0421 4.05256 17.2696 4.93635L19.4739 13.5016C19.7996 14.7672 18.8438 16 17.537 16H2.00103C0.694175 16 -0.261565 14.7672 0.0641454 13.5016L2.26843 4.93635Z" fill="#602FB0"/>
</svg>
