<svg width="18" height="18" viewBox="0 0 18 18" fill="none" xmlns="http://www.w3.org/2000/svg">
<path fill-rule="evenodd" clip-rule="evenodd" d="M6.89811 16.2753C9.51759 16.2753 11.6411 14.1518 11.6411 11.5323C11.6411 8.91283 9.51759 6.78932 6.89811 6.78932C4.27864 6.78932 2.15514 8.91283 2.15514 11.5323C2.15514 14.1518 4.27864 16.2753 6.89811 16.2753ZM6.89811 18C10.4701 18 13.3658 15.1043 13.3658 11.5323C13.3658 7.96029 10.4701 5.06461 6.89811 5.06461C3.32611 5.06461 0.43042 7.96029 0.43042 11.5323C0.43042 15.1043 3.32611 18 6.89811 18Z" fill="#0D78BC"/>
<path fill-rule="evenodd" clip-rule="evenodd" d="M17.5697 1.83076L11.8565 7.54389L10.637 6.32433L16.3501 0.611196L17.5697 1.83076Z" fill="#0D78BC"/>
<path fill-rule="evenodd" clip-rule="evenodd" d="M12.8271 1.50738C12.8271 1.03111 13.2132 0.64502 13.6895 0.64502H16.7078C17.184 0.64502 17.5701 1.03111 17.5701 1.50738C17.5701 1.98365 17.184 2.36974 16.7078 2.36974H13.6895C13.2132 2.36974 12.8271 1.98365 12.8271 1.50738Z" fill="#0D78BC"/>
<path fill-rule="evenodd" clip-rule="evenodd" d="M16.7076 5.38797C16.2313 5.38797 15.8452 5.00188 15.8452 4.52561L15.8452 1.50735C15.8452 1.03109 16.2313 0.644994 16.7076 0.644994C17.1838 0.644994 17.5699 1.03108 17.5699 1.50735L17.5699 4.52561C17.5699 5.00188 17.1838 5.38797 16.7076 5.38797Z" fill="#0D78BC"/>
</svg>
