<svg width="16" height="16" viewBox="0 0 16 16" fill="none" xmlns="http://www.w3.org/2000/svg">
<g clip-path="url(#clip0_57_576)">
<path d="M15.8906 5.8629C15.7542 5.42883 15.4817 5.05018 15.1135 4.78292C14.7453 4.51567 14.3008 4.37401 13.8459 4.3789H10.9332L10.0486 1.62157C9.90943 1.18754 9.63606 0.80891 9.26786 0.540278C8.89966 0.271645 8.45566 0.126892 7.99988 0.126892C7.54411 0.126892 7.1001 0.271645 6.7319 0.540278C6.36371 0.80891 6.09034 1.18754 5.95122 1.62157L5.06655 4.3789H2.15388C1.70038 4.37955 1.25868 4.52349 0.891871 4.79017C0.525063 5.05685 0.251912 5.43263 0.111432 5.86383C-0.0290475 6.29502 -0.0296693 6.75959 0.109656 7.19116C0.24898 7.62273 0.521125 7.99924 0.887218 8.2669L3.25788 10.0002L2.35655 12.7916C2.21089 13.2245 2.20905 13.6929 2.35129 14.127C2.49353 14.561 2.77225 14.9375 3.14588 15.2002C3.51312 15.4714 3.95815 15.6167 4.41465 15.6144C4.87116 15.6121 5.31471 15.4624 5.67922 15.1876L7.99988 13.4796L10.3212 15.1856C10.6878 15.4552 11.1304 15.6017 11.5855 15.6039C12.0405 15.6061 12.4845 15.464 12.8537 15.1979C13.2229 14.9319 13.4982 14.5556 13.6401 14.1232C13.7819 13.6908 13.783 13.2246 13.6432 12.7916L12.7419 10.0002L15.1152 8.2669C15.4855 8.0026 15.7608 7.6261 15.9005 7.19313C16.0401 6.76016 16.0366 6.29374 15.8906 5.8629ZM14.3286 7.19023L11.5659 9.20957C11.4524 9.29235 11.368 9.40885 11.3246 9.54246C11.2813 9.67606 11.2813 9.81994 11.3246 9.95357L12.3746 13.2002C12.4277 13.3649 12.4272 13.5422 12.3733 13.7066C12.3193 13.871 12.2146 14.014 12.0742 14.1152C11.9338 14.2163 11.7649 14.2703 11.5919 14.2694C11.4189 14.2685 11.2506 14.2128 11.1112 14.1102L8.39455 12.1102C8.28013 12.0262 8.14186 11.9809 7.99988 11.9809C7.85791 11.9809 7.71964 12.0262 7.60522 12.1102L4.88855 14.1102C4.74927 14.2142 4.58051 14.2711 4.40673 14.2726C4.23295 14.2742 4.06318 14.2204 3.92204 14.119C3.7809 14.0176 3.67572 13.8739 3.62175 13.7087C3.56778 13.5435 3.56783 13.3654 3.62188 13.2002L4.67522 9.95357C4.7185 9.81994 4.71846 9.67606 4.67513 9.54246C4.63179 9.40885 4.54736 9.29235 4.43388 9.20957L1.67122 7.19023C1.53209 7.08837 1.42871 6.94513 1.37585 6.781C1.32298 6.61686 1.32334 6.44022 1.37687 6.2763C1.4304 6.11238 1.53437 5.96957 1.67391 5.86827C1.81346 5.76697 1.98145 5.71236 2.15388 5.71223H5.55388C5.69503 5.71223 5.83253 5.66743 5.94658 5.58428C6.06064 5.50114 6.14536 5.38394 6.18855 5.24957L7.22188 2.0289C7.27493 1.86409 7.37889 1.72036 7.51882 1.6184C7.65875 1.51644 7.82742 1.4615 8.00055 1.4615C8.17369 1.4615 8.34236 1.51644 8.48228 1.6184C8.62221 1.72036 8.72618 1.86409 8.77922 2.0289L9.81255 5.24957C9.85574 5.38394 9.94046 5.50114 10.0545 5.58428C10.1686 5.66743 10.3061 5.71223 10.4472 5.71223H13.8472C14.0197 5.71236 14.1876 5.76697 14.3272 5.86827C14.4667 5.96957 14.5707 6.11238 14.6242 6.2763C14.6778 6.44022 14.6781 6.61686 14.6253 6.781C14.5724 6.94513 14.469 7.08837 14.3299 7.19023H14.3286Z" fill="#2B323E" fill-opacity="0.8"/>
</g>
<defs>
<clipPath id="clip0_57_576">
<rect width="16" height="16" fill="white"/>
</clipPath>
</defs>
</svg>
