<svg width="35" height="35" viewBox="0 0 35 35" fill="none" xmlns="http://www.w3.org/2000/svg">
<path d="M29.4618 5.53793C29.3949 4.10375 28.7976 2.74555 27.7858 1.7269C27.2465 1.18168 26.6047 0.748433 25.8974 0.452073C25.1901 0.155713 24.4312 0.00208502 23.6643 2.10765e-05C22.8974 -0.00204286 22.1376 0.147498 21.4287 0.440047C20.7198 0.732595 20.0758 1.16238 19.5335 1.70469C18.9913 2.247 18.5617 2.89113 18.2692 3.60006C17.9768 4.30898 17.8274 5.06872 17.8297 5.83557C17.8319 6.60243 17.9857 7.36128 18.2822 8.0685C18.5787 8.77571 19.0121 9.41734 19.5575 9.95649L9.95699 19.5583C9.41781 19.0129 8.77615 18.5796 8.0689 18.283C7.36165 17.9865 6.60276 17.8327 5.83586 17.8305C5.06897 17.8283 4.3092 17.9777 3.60024 18.2701C2.89128 18.5625 2.24711 18.9921 1.70477 19.5343C1.16244 20.0765 0.732631 20.7206 0.440069 21.4294C0.147506 22.1383 -0.00204297 22.898 2.10775e-05 23.6648C0.00208512 24.4317 0.155721 25.1906 0.452096 25.8979C0.74847 26.6051 1.18174 27.2469 1.72698 27.7861C2.78498 28.8441 4.15374 29.3887 5.53821 29.4621C5.61153 30.8465 6.15624 32.2134 7.21424 33.2731C7.75353 33.8183 8.39528 34.2516 9.1026 34.5479C9.80991 34.8443 10.5688 34.9979 11.3357 35C12.1026 35.002 12.8624 34.8525 13.5713 34.56C14.2802 34.2674 14.9242 33.8376 15.4665 33.2953C16.0087 32.753 16.4383 32.1089 16.7308 31.3999C17.0232 30.691 17.1726 29.9313 17.1703 29.1644C17.1681 28.3976 17.0143 27.6387 16.7178 26.9315C16.4213 26.2243 15.9879 25.5827 15.4425 25.0435L25.043 15.4435C25.5822 15.9888 26.2238 16.4222 26.9311 16.7187C27.6384 17.0152 28.3972 17.169 29.1641 17.1712C29.931 17.1735 30.6908 17.0241 31.3998 16.7317C32.1087 16.4393 32.7529 16.0096 33.2952 15.4674C33.8376 14.9252 34.2674 14.2812 34.5599 13.5723C34.8525 12.8635 35.002 12.1038 35 11.3369C34.9979 10.5701 34.8443 9.81117 34.5479 9.10389C34.2515 8.39661 33.8183 7.75489 33.273 7.21562C32.255 6.20264 30.8964 5.60462 29.4618 5.53793Z" fill="#23D289"/>
</svg>
