<svg width="64" height="64" viewBox="0 0 64 64" fill="none" xmlns="http://www.w3.org/2000/svg">
<path d="M43.4618 19.5379C43.3949 18.1037 42.7976 16.7455 41.7858 15.7269C41.2465 15.1817 40.6047 14.7484 39.8974 14.4521C39.1901 14.1557 38.4312 14.0021 37.6643 14C36.8974 13.998 36.1376 14.1475 35.4287 14.44C34.7198 14.7326 34.0758 15.1624 33.5335 15.7047C32.9913 16.247 32.5616 16.8911 32.2692 17.6001C31.9768 18.309 31.8274 19.0687 31.8297 19.8356C31.8319 20.6024 31.9857 21.3613 32.2822 22.0685C32.5787 22.7757 33.0121 23.4173 33.5575 23.9565L23.957 33.5583C23.4178 33.0129 22.7762 32.5796 22.0689 32.283C21.3616 31.9865 20.6028 31.8327 19.8359 31.8305C19.069 31.8283 18.3092 31.9777 17.6002 32.2701C16.8913 32.5625 16.2471 32.9921 15.7048 33.5343C15.1624 34.0765 14.7326 34.7206 14.4401 35.4294C14.1475 36.1383 13.998 36.898 14 37.6648C14.0021 38.4317 14.1557 39.1906 14.4521 39.8979C14.7485 40.6051 15.1817 41.2469 15.727 41.7861C16.785 42.8441 18.1537 43.3887 19.5382 43.4621C19.6115 44.8465 20.1562 46.2134 21.2142 47.2731C21.7535 47.8183 22.3953 48.2516 23.1026 48.5479C23.8099 48.8443 24.5688 48.9979 25.3357 49C26.1026 49.002 26.8624 48.8525 27.5713 48.56C28.2802 48.2674 28.9242 47.8376 29.4665 47.2953C30.0087 46.753 30.4383 46.1089 30.7308 45.3999C31.0232 44.691 31.1726 43.9313 31.1703 43.1644C31.1681 42.3976 31.0143 41.6387 30.7178 40.9315C30.4213 40.2243 29.9879 39.5827 29.4425 39.0435L39.043 29.4435C39.5822 29.9888 40.2238 30.4222 40.9311 30.7187C41.6384 31.0152 42.3972 31.169 43.1641 31.1712C43.931 31.1735 44.6908 31.0241 45.3998 30.7317C46.1087 30.4393 46.7529 30.0096 47.2952 29.4674C47.8376 28.9252 48.2674 28.2812 48.5599 27.5723C48.8525 26.8635 49.002 26.1038 49 25.3369C48.9979 24.5701 48.8443 23.8112 48.5479 23.1039C48.2515 22.3966 47.8183 21.7549 47.273 21.2156C46.255 20.2026 44.8964 19.6046 43.4618 19.5379Z" fill="#23D289"/>
<path fill-rule="evenodd" clip-rule="evenodd" d="M32 60.4444C47.7094 60.4444 60.4444 47.7094 60.4444 32C60.4444 16.2906 47.7094 3.55556 32 3.55556C16.2906 3.55556 3.55556 16.2906 3.55556 32C3.55556 47.7094 16.2906 60.4444 32 60.4444ZM32 64C49.6731 64 64 49.6731 64 32C64 14.3269 49.6731 0 32 0C14.3269 0 0 14.3269 0 32C0 49.6731 14.3269 64 32 64Z" fill="#23D289"/>
</svg>
