<svg width="159" height="44" viewBox="0 0 159 44" fill="none" xmlns="http://www.w3.org/2000/svg">
<path d="M36.888 42.028C36.9653 42.26 37.004 42.434 37.004 42.55C37.004 42.9367 36.8687 43.2847 36.598 43.594C36.3273 43.8647 35.9793 44 35.554 44H32.944C32.6347 44 32.364 43.9227 32.132 43.768C31.9 43.5747 31.726 43.3427 31.61 43.072L27.202 32.864L24.476 32.98H16.066L13.282 32.806L8.874 43.072C8.79667 43.3427 8.62267 43.5747 8.352 43.768C8.12 43.9227 7.84933 44 7.54 44H4.93C4.54333 44 4.19533 43.8647 3.886 43.594C3.61533 43.2847 3.48 42.9367 3.48 42.55C3.48 42.434 3.51867 42.26 3.596 42.028L7.134 32.516L10.962 22.714L18.27 4.328C18.386 4.05733 18.56 3.84466 18.792 3.69C19.0627 3.49666 19.3333 3.4 19.604 3.4H20.822C21.0927 3.4 21.344 3.49666 21.576 3.69C21.8467 3.84466 22.04 4.05733 22.156 4.328L29.522 22.714L33.35 32.516L36.888 42.028ZM23.258 22.714L20.242 14.478L17.226 22.714L15.37 27.412H25.114L23.258 22.714ZM68.2483 3.226C68.287 4.46333 68.345 7.15067 68.4223 11.288C68.4997 15.4253 68.5383 19.3113 68.5383 22.946C68.5383 26.6193 68.4997 29.094 68.4223 30.37C68.3063 32.8833 67.591 35.184 66.2763 37.272C65.0003 39.3213 63.2797 40.9647 61.1143 42.202C58.9877 43.4007 56.6677 44 54.1543 44C51.5637 44 49.1663 43.362 46.9623 42.086C44.797 40.81 43.0763 39.07 41.8003 36.866C40.5243 34.662 39.8863 32.2647 39.8863 29.674C39.8863 27.0833 40.5243 24.7053 41.8003 22.54C43.0763 20.336 44.797 18.596 46.9623 17.32C49.1663 16.0053 51.5637 15.348 54.1543 15.348C55.6623 15.348 57.209 15.7153 58.7943 16.45C60.4183 17.146 61.6363 18.0353 62.4483 19.118C62.5257 19.1953 62.603 19.2147 62.6803 19.176C62.7577 19.1373 62.7963 19.0793 62.7963 19.002L62.8543 3.226C62.8543 2.91667 62.9703 2.646 63.2023 2.414C63.4343 2.182 63.705 2.066 64.0143 2.066H67.0883C67.3977 2.066 67.6683 2.182 67.9003 2.414C68.1323 2.646 68.2483 2.91667 68.2483 3.226ZM62.6803 29.674C62.6803 28.1273 62.2937 26.716 61.5203 25.44C60.747 24.1253 59.703 23.0813 58.3883 22.308C57.1123 21.5347 55.701 21.148 54.1543 21.148C52.6077 21.148 51.177 21.5347 49.8623 22.308C48.5863 23.0813 47.5617 24.1253 46.7883 25.44C46.015 26.716 45.6283 28.1273 45.6283 29.674C45.6283 31.2207 46.015 32.6513 46.7883 33.966C47.5617 35.2807 48.6057 36.3247 49.9203 37.098C51.235 37.8327 52.6463 38.2 54.1543 38.2C55.701 38.2 57.1123 37.8133 58.3883 37.04C59.703 36.2667 60.747 35.242 61.5203 33.966C62.2937 32.6513 62.6803 31.2207 62.6803 29.674ZM88.5918 15.348C91.1825 15.348 93.5798 16.0053 95.7838 17.32C97.9878 18.596 99.7278 20.336 101.004 22.54C102.28 24.7053 102.918 27.0833 102.918 29.674C102.918 32.2647 102.28 34.662 101.004 36.866C99.7278 39.07 97.9878 40.81 95.7838 42.086C93.5798 43.362 91.1825 44 88.5918 44C86.0012 44 83.6038 43.362 81.3998 42.086C79.2345 40.81 77.5138 39.07 76.2378 36.866C74.9618 34.662 74.3238 32.2647 74.3238 29.674C74.3238 27.0833 74.9618 24.7053 76.2378 22.54C77.5138 20.336 79.2345 18.596 81.3998 17.32C83.6038 16.0053 86.0012 15.348 88.5918 15.348ZM88.5918 21.09C87.0452 21.09 85.6145 21.4767 84.2998 22.25C82.9852 23.0233 81.9412 24.0673 81.1678 25.382C80.3945 26.6967 80.0078 28.1273 80.0078 29.674C80.0078 31.2207 80.3945 32.6707 81.1678 34.024C81.9412 35.3387 82.9852 36.3827 84.2998 37.156C85.6145 37.9293 87.0452 38.316 88.5918 38.316C90.1385 38.316 91.5692 37.9293 92.8838 37.156C94.2372 36.3827 95.3005 35.3387 96.0738 34.024C96.8472 32.6707 97.2338 31.2207 97.2338 29.674C97.2338 28.1273 96.8472 26.6967 96.0738 25.382C95.3005 24.0673 94.2372 23.0233 92.8838 22.25C91.5692 21.4767 90.1385 21.09 88.5918 21.09ZM124.655 15.812C124.925 15.8507 125.157 15.9667 125.351 16.16C125.544 16.3533 125.641 16.5853 125.641 16.856V20.278C125.641 20.5487 125.544 20.7807 125.351 20.974C125.157 21.1673 124.925 21.2833 124.655 21.322L118.913 21.496V33.676L118.681 43.014C118.681 43.2847 118.584 43.5167 118.391 43.71C118.197 43.9033 117.965 44 117.695 44H114.331C114.06 44 113.809 43.9033 113.577 43.71C113.383 43.5167 113.287 43.2847 113.287 43.014L113.113 33.676V21.496L107.371 21.322C107.1 21.2833 106.868 21.1867 106.675 21.032C106.481 20.8387 106.385 20.6067 106.385 20.336V16.856C106.385 16.5853 106.462 16.3533 106.617 16.16C106.81 15.9667 107.061 15.8507 107.371 15.812L113.113 15.638V10.708L113.287 1.428C113.287 1.15733 113.383 0.92533 113.577 0.731997C113.77 0.538664 114.021 0.441997 114.331 0.441997H117.695C117.965 0.441997 118.197 0.538664 118.391 0.731997C118.584 0.92533 118.681 1.15733 118.681 1.428L118.913 10.708V15.638L124.655 15.812ZM157.268 28.746C157.23 29.5193 156.862 30.196 156.166 30.776C155.47 31.356 154.697 31.646 153.846 31.646H136.098C135.944 31.646 135.808 31.704 135.692 31.82C135.576 31.936 135.538 32.0907 135.576 32.284C136.079 34.372 137.123 35.9187 138.708 36.924C140.332 37.9293 142.227 38.432 144.392 38.432C145.514 38.432 146.693 38.1807 147.93 37.678C149.206 37.1753 150.308 36.4987 151.236 35.648C151.43 35.4547 151.681 35.358 151.99 35.358C152.338 35.358 152.59 35.4547 152.744 35.648L155.064 37.91C155.296 38.0647 155.412 38.316 155.412 38.664C155.412 38.9733 155.296 39.244 155.064 39.476C152.01 42.492 148.414 44 144.276 44C141.57 44 139.095 43.362 136.852 42.086C134.648 40.81 132.908 39.0893 131.632 36.924C130.356 34.72 129.718 32.2647 129.718 29.558C129.718 28.63 129.757 27.9147 129.834 27.412C130.144 24.976 130.975 22.8493 132.328 21.032C133.682 19.2147 135.383 17.8227 137.432 16.856C139.52 15.8507 141.782 15.348 144.218 15.348C144.605 15.348 145.185 15.3867 145.958 15.464C148.046 15.696 149.96 16.45 151.7 17.726C153.44 18.9633 154.813 20.4713 155.818 22.25C156.824 24.0287 157.326 25.7493 157.326 27.412L157.268 28.746ZM144.392 20.336C142.304 20.336 140.487 20.9547 138.94 22.192C137.432 23.4293 136.466 24.918 136.04 26.658L135.982 26.832C135.982 26.9867 136.04 27.122 136.156 27.238C136.272 27.354 136.408 27.412 136.562 27.412H151.468C151.662 27.412 151.816 27.3347 151.932 27.18C152.048 27.0253 152.068 26.8513 151.99 26.658C151.449 24.8793 150.579 23.3907 149.38 22.192C148.182 20.9547 146.519 20.336 144.392 20.336Z" fill="#FF9920"/>
</svg>
