<svg width="64" height="64" viewBox="0 0 64 64" fill="none" xmlns="http://www.w3.org/2000/svg">
<path fill-rule="evenodd" clip-rule="evenodd" d="M46.2776 17.8084C47.264 18.8601 47.2355 20.5359 46.2138 21.5514L35.7015 32L46.2138 42.4486L42.6417 46.2572L31.9996 35.6795L21.3574 46.2572C20.3358 47.2727 18.7079 47.2433 17.7215 46.1916C16.7351 45.1399 16.7637 43.4641 17.7853 42.4486L28.2976 32L17.7853 21.5514L21.3574 17.7428L31.9996 28.3205L42.6417 17.7428C43.6634 16.7273 45.2912 16.7567 46.2776 17.8084Z" fill="#EB3D3D"/>
<path fill-rule="evenodd" clip-rule="evenodd" d="M46.2777 46.1916C45.2913 47.2433 43.6635 47.2727 42.6419 46.2572L31.9997 35.6795L21.3575 46.2572L17.7854 42.4486L28.2977 32L17.7854 21.5514C16.7638 20.5359 16.7352 18.8601 17.7216 17.8084C18.708 16.7567 20.3359 16.7273 21.3575 17.7428L31.9997 28.3205L42.6419 17.7428L46.214 21.5514L35.7016 32L46.214 42.4486C47.2356 43.4641 47.2642 45.1399 46.2777 46.1916Z" fill="#EB3D3D"/>
<path fill-rule="evenodd" clip-rule="evenodd" d="M32 60.4444C47.7094 60.4444 60.4444 47.7094 60.4444 32C60.4444 16.2906 47.7094 3.55556 32 3.55556C16.2906 3.55556 3.55556 16.2906 3.55556 32C3.55556 47.7094 16.2906 60.4444 32 60.4444ZM32 64C49.6731 64 64 49.6731 64 32C64 14.3269 49.6731 0 32 0C14.3269 0 0 14.3269 0 32C0 49.6731 14.3269 64 32 64Z" fill="#EB3D3D"/>
</svg>
