<svg width="30" height="30" viewBox="0 0 30 30" fill="none" xmlns="http://www.w3.org/2000/svg">
<path fill-rule="evenodd" clip-rule="evenodd" d="M29.2776 0.808429C30.264 1.86014 30.2355 3.53591 29.2138 4.55136L18.7015 15L29.2138 25.4486L25.6417 29.2572L14.9996 18.6795L4.35741 29.2572C3.33577 30.2727 1.70793 30.2433 0.721521 29.1916C-0.264887 28.1399 -0.236328 26.4641 0.785309 25.4486L11.2976 15L0.785309 4.55136L4.35741 0.742763L14.9996 11.3205L25.6417 0.742763C26.6634 -0.272685 28.2912 -0.243286 29.2776 0.808429Z" fill="#EB3D3D"/>
<path fill-rule="evenodd" clip-rule="evenodd" d="M29.2777 29.1916C28.2913 30.2433 26.6635 30.2727 25.6419 29.2572L14.9997 18.6795L4.35753 29.2572L0.785426 25.4486L11.2977 15L0.785427 4.55136C-0.23621 3.53591 -0.264769 1.86014 0.72164 0.808427C1.70805 -0.243287 3.33589 -0.272686 4.35753 0.742762L14.9997 11.3205L25.6419 0.742763L29.214 4.55136L18.7016 15L29.214 25.4486C30.2356 26.4641 30.2642 28.1399 29.2777 29.1916Z" fill="#EB3D3D"/>
</svg>
