<svg width="18" height="18" viewBox="0 0 18 18" fill="none" xmlns="http://www.w3.org/2000/svg">
<path d="M6.12299 6.00032C5.68855 5.99352 5.26995 5.83605 4.93874 5.55482C4.24789 4.92124 3.82935 4.04465 3.77099 3.10907C3.58874 1.23932 4.60874 0.136073 5.71049 0.0130734C5.97596 -0.0163592 6.24463 0.00791436 6.50052 0.0844494C6.75641 0.160984 6.99428 0.288217 7.19999 0.458573C7.50687 0.735199 7.75603 1.06977 7.93314 1.44304C8.11025 1.81631 8.21182 2.22091 8.23199 2.63357C8.39999 4.37657 7.59599 6.00032 6.12299 6.00032ZM5.87699 1.50032C5.44424 1.54832 5.18624 2.16257 5.26424 2.95982C5.28597 3.49542 5.5069 4.00361 5.88374 4.38482C5.95514 4.45495 6.05 4.49611 6.14999 4.50032C6.41324 4.47107 6.83699 3.79457 6.73724 2.77532C6.48074 1.37582 5.89574 1.50032 5.87699 1.50407V1.50032ZM2.37299 10.5003C1.93855 10.4935 1.51995 10.3361 1.18874 10.0548C0.497888 9.42124 0.0793517 8.54465 0.0209922 7.60907C-0.161258 5.73932 0.858742 4.63607 1.96049 4.51307C2.22594 4.48399 2.49453 4.50842 2.75037 4.58494C3.00621 4.66146 3.24411 4.78851 3.44999 4.95857C3.75687 5.2352 4.00604 5.56977 4.18315 5.94304C4.36026 6.31631 4.46182 6.72091 4.48199 7.13357C4.64999 8.87657 3.80774 10.5003 2.37299 10.5003ZM2.12699 6.00032C1.69424 6.04832 1.43624 6.66257 1.51424 7.45982C1.53597 7.99542 1.7569 8.50361 2.13374 8.88482C2.20584 8.95391 2.30029 8.99488 2.39999 9.00032C2.66324 8.97107 3.08699 8.29457 2.98724 7.27532C2.78849 5.90432 2.14574 6.00032 2.12699 6.00407V6.00032ZM11.877 6.00032C10.596 6.00932 9.60149 4.37582 9.77174 2.63132C9.79192 2.21866 9.89348 1.81406 10.0706 1.44079C10.2477 1.06752 10.4969 0.732949 10.8037 0.456323C11.0093 0.286988 11.2466 0.160526 11.5018 0.0843981C11.757 0.00827031 12.0248 -0.0159815 12.2895 0.0130734C13.3912 0.136073 14.4112 1.23932 14.229 3.10907C14.1708 4.04492 13.7523 4.92181 13.0612 5.55557C12.7299 5.83653 12.3113 5.99373 11.877 6.00032V6.00032ZM11.265 2.77532C11.1652 3.79157 11.589 4.46807 11.8522 4.50032C11.9503 4.49646 12.0439 4.45793 12.1162 4.39157C12.4931 4.01036 12.714 3.50217 12.7357 2.96657C12.8932 1.00082 11.4 1.12907 11.265 2.77532ZM15.627 10.5003C14.2305 10.5003 13.3515 8.87582 13.5217 7.13132C13.5419 6.71866 13.6435 6.31406 13.8206 5.94079C13.9977 5.56752 14.2469 5.23295 14.5537 4.95632C14.7589 4.78637 14.9962 4.65936 15.2514 4.58284C15.5066 4.50631 15.7746 4.48182 16.0395 4.51082C17.1412 4.63382 18.1612 5.73707 17.979 7.60682C17.9208 8.54267 17.5023 9.41956 16.8112 10.0533C16.4802 10.3351 16.0616 10.4931 15.627 10.5003V10.5003ZM15.015 7.27532C14.9152 8.29157 15.339 8.96807 15.6022 9.00032C15.7 8.99516 15.7932 8.9568 15.8662 8.89157C16.2431 8.51036 16.464 8.00217 16.4857 7.46657C16.5607 6.66932 16.3057 6.05507 15.873 6.00707C15.8542 6.00032 15.0862 5.93357 15.015 7.27532ZM12 18.0003C11.3589 18.0131 10.7258 17.8563 10.1647 17.5458C9.80564 17.3567 9.40587 17.2578 8.99999 17.2578C8.59411 17.2578 8.19434 17.3567 7.83524 17.5458C5.57549 18.8126 2.94149 17.4206 2.99999 14.2503C2.99999 10.7741 6.38024 7.50032 8.99999 7.50032C11.6197 7.50032 15 10.7733 15 14.2503C15 16.4583 13.7662 18.0003 12 18.0003ZM8.99999 15.7503C9.64098 15.7377 10.274 15.8942 10.8352 16.2041C12.513 17.1176 13.5262 15.8793 13.5 14.2503C13.5 11.7153 10.8592 9.00032 8.99999 9.00032C7.14074 9.00032 4.49999 11.7153 4.49999 14.2503C4.47599 15.8771 5.48099 17.1176 7.16474 16.2041C7.726 15.8942 8.359 15.7377 8.99999 15.7503Z" fill="#186332"/>
</svg>
