<svg width="148" height="42" viewBox="0 0 148 42" fill="none" xmlns="http://www.w3.org/2000/svg">
<path d="M35.744 34.924C35.8987 35.0787 35.976 35.2913 35.976 35.562C35.976 35.8713 35.8793 36.1227 35.686 36.316C33.6753 38.2107 31.452 39.6413 29.016 40.608C26.58 41.536 24.0473 42 21.418 42C17.822 42 14.4193 41.1493 11.21 39.448C8.00067 37.7467 5.41 35.3493 3.438 32.256C1.466 29.1627 0.48 25.6247 0.48 21.642C0.48 17.6207 1.42733 14.0633 3.322 10.97C5.25533 7.87667 7.788 5.49867 10.92 3.836C14.052 2.13466 17.3967 1.284 20.954 1.284C23.5447 1.284 26.0773 1.76733 28.552 2.734C31.0653 3.662 33.366 5.09266 35.454 7.026C35.686 7.258 35.802 7.50933 35.802 7.78C35.802 8.05067 35.7053 8.28267 35.512 8.476L32.96 11.202C32.8053 11.434 32.554 11.55 32.206 11.55C31.974 11.55 31.7807 11.4727 31.626 11.318C29.9633 9.96467 28.1847 8.95933 26.29 8.302C24.434 7.606 22.5587 7.258 20.664 7.258C18.112 7.258 15.7533 7.85733 13.588 9.056C11.4613 10.216 9.74067 11.898 8.426 14.102C7.15 16.2673 6.512 18.8 6.512 21.7C6.512 24.484 7.22733 26.9587 8.658 29.124C10.0887 31.2893 11.964 32.9713 14.284 34.17C16.6427 35.3687 19.1367 35.968 21.766 35.968C25.6327 35.968 29.0353 34.75 31.974 32.314C32.1287 32.1593 32.322 32.082 32.554 32.082C32.8247 32.082 33.0567 32.1787 33.25 32.372L35.744 34.924ZM40.8566 14.392C40.8566 14.0827 40.9533 13.8313 41.1466 13.638C41.3786 13.4447 41.6299 13.348 41.9006 13.348H45.0906C45.3999 13.348 45.6513 13.4447 45.8446 13.638C46.0379 13.8313 46.1346 14.0827 46.1346 14.392L46.3666 29.82C46.3666 31.9467 47.0046 33.6093 48.2806 34.808C49.5953 36.0067 51.1226 36.606 52.8626 36.606C54.6026 36.606 56.1106 36.0067 57.3866 34.808C58.6626 33.6093 59.3006 31.9467 59.3006 29.82L59.4746 14.392C59.4746 14.0827 59.5713 13.8313 59.7646 13.638C59.9966 13.4447 60.2479 13.348 60.5186 13.348H63.7666C64.0759 13.348 64.3273 13.4447 64.5206 13.638C64.7139 13.8313 64.8106 14.0827 64.8106 14.392L64.9846 30.516L64.9266 40.434C64.9266 40.7047 64.8299 40.956 64.6366 41.188C64.4433 41.3813 64.1919 41.478 63.8826 41.478H60.4026C60.1319 41.478 59.8999 41.3813 59.7066 41.188C59.5133 40.9947 59.3973 40.7627 59.3586 40.492V39.042C57.9279 41.014 55.7433 42 52.8046 42C50.1753 42 47.9326 41.4393 46.0766 40.318C44.2593 39.158 42.8866 37.65 41.9586 35.794C41.0693 33.938 40.6246 31.9467 40.6246 29.82L40.8566 14.392ZM78.6454 7.2C78.6454 6.19466 78.2781 5.344 77.5434 4.648C76.8474 3.91333 75.9968 3.546 74.9914 3.546C73.9861 3.546 73.1161 3.91333 72.3814 4.648C71.6854 5.344 71.3374 6.19466 71.3374 7.2C71.3374 8.20533 71.6854 9.056 72.3814 9.752C73.1161 10.448 73.9861 10.796 74.9914 10.796C75.9968 10.796 76.8474 10.448 77.5434 9.752C78.2781 9.01733 78.6454 8.16666 78.6454 7.2ZM76.6734 13.348C76.9441 13.348 77.1761 13.4447 77.3694 13.638C77.5628 13.8313 77.6594 14.0827 77.6594 14.392L77.8914 23.672V31.676L77.6594 41.014C77.6594 41.2847 77.5628 41.5167 77.3694 41.71C77.1761 41.9033 76.9441 42 76.6734 42H73.3094C73.0388 42 72.7874 41.9033 72.5554 41.71C72.3621 41.5167 72.2654 41.2847 72.2654 41.014L72.0914 31.676V23.672L72.2654 14.392C72.2654 14.0827 72.3621 13.8313 72.5554 13.638C72.7874 13.4447 73.0388 13.348 73.3094 13.348H76.6734ZM113.393 1.226C113.432 2.46333 113.49 5.15067 113.567 9.288C113.644 13.4253 113.683 17.3113 113.683 20.946C113.683 24.6193 113.644 27.094 113.567 28.37C113.451 30.8833 112.736 33.184 111.421 35.272C110.145 37.3213 108.424 38.9647 106.259 40.202C104.132 41.4007 101.812 42 99.2989 42C96.7082 42 94.3109 41.362 92.1069 40.086C89.9415 38.81 88.2209 37.07 86.9449 34.866C85.6689 32.662 85.0309 30.2647 85.0309 27.674C85.0309 25.0833 85.6689 22.7053 86.9449 20.54C88.2209 18.336 89.9415 16.596 92.1069 15.32C94.3109 14.0053 96.7082 13.348 99.2989 13.348C100.807 13.348 102.354 13.7153 103.939 14.45C105.563 15.146 106.781 16.0353 107.593 17.118C107.67 17.1953 107.748 17.2147 107.825 17.176C107.902 17.1373 107.941 17.0793 107.941 17.002L107.999 1.226C107.999 0.916666 108.115 0.645999 108.347 0.414C108.579 0.181998 108.85 0.0659971 109.159 0.0659971H112.233C112.542 0.0659971 112.813 0.181998 113.045 0.414C113.277 0.645999 113.393 0.916666 113.393 1.226ZM107.825 27.674C107.825 26.1273 107.438 24.716 106.665 23.44C105.892 22.1253 104.848 21.0813 103.533 20.308C102.257 19.5347 100.846 19.148 99.2989 19.148C97.7522 19.148 96.3215 19.5347 95.0069 20.308C93.7309 21.0813 92.7062 22.1253 91.9329 23.44C91.1595 24.716 90.7729 26.1273 90.7729 27.674C90.7729 29.2207 91.1595 30.6513 91.9329 31.966C92.7062 33.2807 93.7502 34.3247 95.0649 35.098C96.3795 35.8327 97.7909 36.2 99.2989 36.2C100.846 36.2 102.257 35.8133 103.533 35.04C104.848 34.2667 105.892 33.242 106.665 31.966C107.438 30.6513 107.825 29.2207 107.825 27.674ZM147.018 26.746C146.98 27.5193 146.612 28.196 145.916 28.776C145.22 29.356 144.447 29.646 143.596 29.646H125.848C125.694 29.646 125.558 29.704 125.442 29.82C125.326 29.936 125.288 30.0907 125.326 30.284C125.829 32.372 126.873 33.9187 128.458 34.924C130.082 35.9293 131.977 36.432 134.142 36.432C135.264 36.432 136.443 36.1807 137.68 35.678C138.956 35.1753 140.058 34.4987 140.986 33.648C141.18 33.4547 141.431 33.358 141.74 33.358C142.088 33.358 142.34 33.4547 142.494 33.648L144.814 35.91C145.046 36.0647 145.162 36.316 145.162 36.664C145.162 36.9733 145.046 37.244 144.814 37.476C141.76 40.492 138.164 42 134.026 42C131.32 42 128.845 41.362 126.602 40.086C124.398 38.81 122.658 37.0893 121.382 34.924C120.106 32.72 119.468 30.2647 119.468 27.558C119.468 26.63 119.507 25.9147 119.584 25.412C119.894 22.976 120.725 20.8493 122.078 19.032C123.432 17.2147 125.133 15.8227 127.182 14.856C129.27 13.8507 131.532 13.348 133.968 13.348C134.355 13.348 134.935 13.3867 135.708 13.464C137.796 13.696 139.71 14.45 141.45 15.726C143.19 16.9633 144.563 18.4713 145.568 20.25C146.574 22.0287 147.076 23.7493 147.076 25.412L147.018 26.746ZM134.142 18.336C132.054 18.336 130.237 18.9547 128.69 20.192C127.182 21.4293 126.216 22.918 125.79 24.658L125.732 24.832C125.732 24.9867 125.79 25.122 125.906 25.238C126.022 25.354 126.158 25.412 126.312 25.412H141.218C141.412 25.412 141.566 25.3347 141.682 25.18C141.798 25.0253 141.818 24.8513 141.74 24.658C141.199 22.8793 140.329 21.3907 139.13 20.192C137.932 18.9547 136.269 18.336 134.142 18.336Z" fill="#FF9920"/>
</svg>
