<svg width="251" height="88" viewBox="0 0 251 88" fill="none" xmlns="http://www.w3.org/2000/svg">
<g filter="url(#filter0_d_57_189)">
<path d="M17.0545 17.9909C18.6091 17.1273 20.2788 16.4652 22.0636 16.0045C23.8485 15.4864 25.6909 15.2273 27.5909 15.2273C30.5848 15.2273 33.3773 15.803 35.9682 16.9545C38.6167 18.0485 40.9197 19.5742 42.8773 21.5318C44.8349 23.4894 46.3606 25.7924 47.4545 28.4409C48.6061 31.0318 49.1818 33.8242 49.1818 36.8182C49.1818 39.8121 48.6061 42.6333 47.4545 45.2818C46.3606 47.8727 44.8349 50.147 42.8773 52.1045C40.9197 54.0621 38.6167 55.6167 35.9682 56.7682C33.3773 57.8621 30.5848 58.4091 27.5909 58.4091C24.597 58.4091 21.7758 57.8621 19.1273 56.7682C16.5364 55.6167 14.2621 54.0621 12.3045 52.1045C10.347 50.147 8.79242 47.8727 7.64091 45.2818C6.54697 42.6333 6 39.8121 6 36.8182V4H12.0545C14.816 4 17.0545 6.23858 17.0545 9V17.9909ZM27.5909 47.3545C29.0303 47.3545 30.3833 47.0955 31.65 46.5773C32.9742 46.0015 34.097 45.253 35.0182 44.3318C35.997 43.353 36.7455 42.2303 37.2636 40.9636C37.8394 39.6394 38.1273 38.2576 38.1273 36.8182C38.1273 35.3788 37.8394 34.0258 37.2636 32.7591C36.7455 31.4349 35.997 30.3121 35.0182 29.3909C34.097 28.4121 32.9742 27.6636 31.65 27.1455C30.3833 26.5697 29.0303 26.2818 27.5909 26.2818C26.1515 26.2818 24.7985 26.5697 23.5318 27.1455C22.2652 27.6636 21.1424 28.3833 20.1636 29.3045C19.2424 30.1682 18.4939 31.2333 17.9182 32.5C17.4 33.7091 17.1121 35.0045 17.0545 36.3864V36.8182C17.0545 38.2576 17.3136 39.6394 17.8318 40.9636C18.4076 42.2303 19.1561 43.353 20.0773 44.3318C21.0561 45.253 22.1788 46.0015 23.4455 46.5773C24.7697 47.0955 26.1515 47.3545 27.5909 47.3545Z" fill="#F97407"/>
<path d="M54.5795 12.5284H60.6341C63.3955 12.5284 65.6341 14.767 65.6341 17.5284V36.8182C65.6341 38.2576 65.8932 39.6394 66.4114 40.9636C66.9871 42.2303 67.7356 43.353 68.6568 44.3318C69.6356 45.253 70.7583 46.0015 72.025 46.5773C73.3492 47.0955 74.7311 47.3545 76.1704 47.3545C77.6098 47.3545 78.9629 47.0955 80.2295 46.5773C81.5538 46.0015 82.6765 45.253 83.5977 44.3318C84.5765 43.353 85.325 42.2303 85.8432 40.9636C86.4189 39.6394 86.7068 38.2576 86.7068 36.8182V17.5284C86.7068 14.767 88.9454 12.5284 91.7068 12.5284H97.7614V36.8182C97.7614 39.8121 97.1856 42.6333 96.0341 45.2818C94.9401 47.8727 93.4144 50.147 91.4568 52.1045C89.4992 54.0621 87.1962 55.6167 84.5477 56.7682C81.9568 57.8621 79.1644 58.4091 76.1704 58.4091C73.1765 58.4091 70.3553 57.8621 67.7068 56.7682C65.1159 55.6167 62.8417 54.0621 60.8841 52.1045C58.9265 50.147 57.372 47.8727 56.2205 45.2818C55.1265 42.6333 54.5795 39.8121 54.5795 36.8182V12.5284Z" fill="#F97407"/>
<path d="M104.421 36.8182C104.421 33.8242 104.968 31.0318 106.062 28.4409C107.213 25.7924 108.768 23.4894 110.725 21.5318C112.683 19.5742 114.957 18.0485 117.548 16.9545C120.197 15.803 123.018 15.2273 126.012 15.2273C127.912 15.2273 129.754 15.4864 131.539 16.0045C133.324 16.4652 134.994 17.1273 136.548 17.9909V9C136.548 6.23858 138.787 4 141.548 4H147.603V36.8182C147.603 39.8121 147.027 42.6333 145.875 45.2818C144.781 47.8727 143.256 50.147 141.298 52.1045C139.34 54.0621 137.037 55.6167 134.389 56.7682C131.798 57.8621 129.006 58.4091 126.012 58.4091C123.018 58.4091 120.197 57.8621 117.548 56.7682C114.957 55.6167 112.683 54.0621 110.725 52.1045C108.768 50.147 107.213 47.8727 106.062 45.2818C104.968 42.6333 104.421 39.8121 104.421 36.8182ZM115.475 36.8182C115.475 38.2576 115.734 39.6394 116.253 40.9636C116.828 42.2303 117.577 43.353 118.498 44.3318C119.477 45.253 120.6 46.0015 121.866 46.5773C123.19 47.0955 124.572 47.3545 126.012 47.3545C127.451 47.3545 128.804 47.0955 130.071 46.5773C131.395 46.0015 132.518 45.253 133.439 44.3318C134.418 43.353 135.166 42.2303 135.684 40.9636C136.26 39.6394 136.548 38.2576 136.548 36.8182C136.548 35.3788 136.26 34.0258 135.684 32.7591C135.166 31.4349 134.418 30.3121 133.439 29.3909C132.518 28.4121 131.395 27.6636 130.071 27.1455C128.804 26.5697 127.451 26.2818 126.012 26.2818C124.572 26.2818 123.19 26.5697 121.866 27.1455C120.6 27.6636 119.477 28.4121 118.498 29.3909C117.577 30.3121 116.828 31.4349 116.253 32.7591C115.734 34.0258 115.475 35.3788 115.475 36.8182Z" fill="#F97407"/>
<path d="M153.088 36.8182C153.088 33.8242 153.635 31.0318 154.729 28.4409C155.88 25.7924 157.435 23.4894 159.393 21.5318C161.35 19.5742 163.624 18.0485 166.215 16.9545C168.864 15.803 171.685 15.2273 174.679 15.2273C176.579 15.2273 178.421 15.4864 180.206 16.0045C181.991 16.4652 183.661 17.1273 185.215 17.9909V9C185.215 6.23858 187.454 4 190.215 4H196.27V36.8182C196.27 39.8121 195.694 42.6333 194.543 45.2818C193.449 47.8727 191.923 50.147 189.965 52.1045C188.008 54.0621 185.705 55.6167 183.056 56.7682C180.465 57.8621 177.673 58.4091 174.679 58.4091C171.685 58.4091 168.864 57.8621 166.215 56.7682C163.624 55.6167 161.35 54.0621 159.393 52.1045C157.435 50.147 155.88 47.8727 154.729 45.2818C153.635 42.6333 153.088 39.8121 153.088 36.8182ZM164.143 36.8182C164.143 38.2576 164.402 39.6394 164.92 40.9636C165.496 42.2303 166.244 43.353 167.165 44.3318C168.144 45.253 169.267 46.0015 170.534 46.5773C171.858 47.0955 173.24 47.3545 174.679 47.3545C176.118 47.3545 177.471 47.0955 178.738 46.5773C180.062 46.0015 181.185 45.253 182.106 44.3318C183.085 43.353 183.834 42.2303 184.352 40.9636C184.927 39.6394 185.215 38.2576 185.215 36.8182C185.215 35.3788 184.927 34.0258 184.352 32.7591C183.834 31.4349 183.085 30.3121 182.106 29.3909C181.185 28.4121 180.062 27.6636 178.738 27.1455C177.471 26.5697 176.118 26.2818 174.679 26.2818C173.24 26.2818 171.858 26.5697 170.534 27.1455C169.267 27.6636 168.144 28.4121 167.165 29.3909C166.244 30.3121 165.496 31.4349 164.92 32.7591C164.402 34.0258 164.143 35.3788 164.143 36.8182Z" fill="#F97407"/>
<path d="M201.668 15.2273H207.722C210.484 15.2273 212.722 17.4659 212.722 20.2273V36.8182C212.722 38.2576 212.981 39.6394 213.499 40.9636C214.075 42.2303 214.824 43.353 215.745 44.3318C216.724 45.253 217.846 46.0015 219.113 46.5773C220.437 47.0955 221.819 47.3545 223.259 47.3545C224.698 47.3545 226.051 47.0955 227.318 46.5773C228.642 46.0015 229.765 45.253 230.686 44.3318C231.665 43.353 232.413 42.2303 232.931 40.9636C233.507 39.6394 233.795 38.2576 233.795 36.8182V20.2273C233.795 17.4659 236.033 15.2273 238.795 15.2273H244.849V58.4091C244.849 61.403 244.274 64.1955 243.122 66.7864C242.028 69.4349 240.502 71.7379 238.545 73.6955C236.587 75.653 234.284 77.1788 231.636 78.2727C229.045 79.4242 226.252 80 223.259 80C220.265 80 217.443 79.4242 214.795 78.2727C212.204 77.1788 209.93 75.653 207.972 73.6955C206.015 71.7379 204.46 69.4349 203.309 66.7864C202.843 65.6838 202.477 64.5448 202.209 63.3692C201.597 60.6766 203.906 58.4091 206.668 58.4091H208.563C210.86 58.4091 212.63 60.3421 213.499 62.4682C214.075 63.7924 214.824 64.9152 215.745 65.8364C216.724 66.8152 217.846 67.5636 219.113 68.0818C220.437 68.6576 221.819 68.9455 223.259 68.9455C224.698 68.9455 226.051 68.6576 227.318 68.0818C228.642 67.5636 229.765 66.8152 230.686 65.8364C231.665 64.9152 232.413 63.7924 232.931 62.4682C233.507 61.2015 233.795 59.8485 233.795 58.4091V55.7318C230.571 57.5167 227.059 58.4091 223.259 58.4091C220.265 58.4091 217.443 57.8621 214.795 56.7682C212.204 55.6167 209.93 54.0621 207.972 52.1045C206.015 50.147 204.46 47.8727 203.309 45.2818C202.215 42.6333 201.668 39.8121 201.668 36.8182V15.2273Z" fill="#F97407"/>
</g>
<g filter="url(#filter1_d_57_189)">
<path d="M78.0482 31.4205H74.2927C72.1729 31.4205 70.8806 33.7521 72.0041 35.5497L73.8818 38.5541C74.9389 40.2454 77.402 40.2454 78.4591 38.5541L80.3368 35.5497C81.4603 33.7521 80.168 31.4205 78.0482 31.4205Z" fill="#F97407"/>
</g>
<defs>
<filter id="filter0_d_57_189" x="0" y="0" width="250.849" height="88" filterUnits="userSpaceOnUse" color-interpolation-filters="sRGB">
<feFlood flood-opacity="0" result="BackgroundImageFix"/>
<feColorMatrix in="SourceAlpha" type="matrix" values="0 0 0 0 0 0 0 0 0 0 0 0 0 0 0 0 0 0 127 0" result="hardAlpha"/>
<feOffset dy="2"/>
<feGaussianBlur stdDeviation="3"/>
<feComposite in2="hardAlpha" operator="out"/>
<feColorMatrix type="matrix" values="0 0 0 0 0.5625 0 0 0 0 0.5625 0 0 0 0 0.5625 0 0 0 0.16 0"/>
<feBlend mode="normal" in2="BackgroundImageFix" result="effect1_dropShadow_57_189"/>
<feBlend mode="normal" in="SourceGraphic" in2="effect1_dropShadow_57_189" result="shape"/>
</filter>
<filter id="filter1_d_57_189" x="65.5895" y="27.4205" width="21.1618" height="20.4021" filterUnits="userSpaceOnUse" color-interpolation-filters="sRGB">
<feFlood flood-opacity="0" result="BackgroundImageFix"/>
<feColorMatrix in="SourceAlpha" type="matrix" values="0 0 0 0 0 0 0 0 0 0 0 0 0 0 0 0 0 0 127 0" result="hardAlpha"/>
<feOffset dy="2"/>
<feGaussianBlur stdDeviation="3"/>
<feComposite in2="hardAlpha" operator="out"/>
<feColorMatrix type="matrix" values="0 0 0 0 0.5625 0 0 0 0 0.5625 0 0 0 0 0.5625 0 0 0 0.16 0"/>
<feBlend mode="normal" in2="BackgroundImageFix" result="effect1_dropShadow_57_189"/>
<feBlend mode="normal" in="SourceGraphic" in2="effect1_dropShadow_57_189" result="shape"/>
</filter>
</defs>
</svg>
