<svg width="17" height="8" viewBox="0 0 17 8" fill="none" xmlns="http://www.w3.org/2000/svg">
<path d="M10.2332 1.01914L4.4122 6.86289C4.31105 6.96107 4.17585 7.01596 4.03515 7.01596C3.89445 7.01596 3.75926 6.96107 3.65811 6.86289L0.747607 3.94101C0.663221 3.83779 0.620097 3.70675 0.626622 3.57338C0.633147 3.44001 0.688854 3.31384 0.782909 3.21942C0.876963 3.125 1.00264 3.06908 1.13549 3.06253C1.26834 3.05597 1.39887 3.09927 1.50169 3.18398L4.03515 5.73398L9.47912 0.262108C9.58194 0.177393 9.71247 0.1341 9.84532 0.14065C9.97818 0.147201 10.1039 0.203126 10.1979 0.297547C10.292 0.391969 10.3477 0.518136 10.3542 0.651508C10.3607 0.784879 10.3176 0.915919 10.2332 1.01914ZM16.3188 0.262108C16.2185 0.162349 16.083 0.106384 15.9418 0.106384C15.8006 0.106384 15.6651 0.162349 15.5647 0.262108L10.1208 5.73398L8.94994 4.55859C8.84928 4.46703 8.71739 4.41783 8.58159 4.42119C8.4458 4.42454 8.31648 4.48019 8.22043 4.57662C8.12438 4.67305 8.06894 4.80287 8.0656 4.9392C8.06225 5.07553 8.11126 5.20793 8.20247 5.30898L9.74371 6.86289C9.84486 6.96107 9.98006 7.01596 10.1208 7.01596C10.2615 7.01596 10.3967 6.96107 10.4978 6.86289L16.3188 1.01914C16.4182 0.918417 16.4739 0.782386 16.4739 0.640623C16.4739 0.49886 16.4182 0.362829 16.3188 0.262108Z" fill="black"/>
</svg>
