<svg width="17" height="16" viewBox="0 0 17 16" fill="none" xmlns="http://www.w3.org/2000/svg">
<g clip-path="url(#clip0_57_379)">
<path d="M16.4891 8.14968C16.4891 7.49416 16.4347 7.01581 16.3169 6.51975H8.65931V9.47841H13.1542C13.0636 10.2137 12.5742 11.321 11.4867 12.065L11.4715 12.1641L13.8927 13.9976L14.0604 14.0139C15.601 12.6231 16.4891 10.5769 16.4891 8.14968Z" fill="#4285F4"/>
<path d="M8.65931 15.945C10.8614 15.945 12.7101 15.2363 14.0604 14.0139L11.4867 12.065C10.798 12.5345 9.87362 12.8623 8.65931 12.8623C6.50251 12.8623 4.67194 11.4716 4.0194 9.54932L3.92375 9.55726L1.40616 11.4618L1.37323 11.5513C2.71443 14.1556 5.46937 15.945 8.65931 15.945Z" fill="#34A853"/>
<path d="M4.0194 9.54932C3.84722 9.05326 3.74758 8.52171 3.74758 7.97252C3.74758 7.42327 3.84722 6.89179 4.01034 6.39573L4.00578 6.29008L1.45664 4.35493L1.37324 4.39371C0.820463 5.47445 0.503281 6.68807 0.503281 7.97252C0.503281 9.25698 0.820463 10.4705 1.37324 11.5513L4.0194 9.54932Z" fill="#FBBC05"/>
<path d="M8.65931 3.08269C10.1908 3.08269 11.2239 3.72934 11.813 4.26974L14.1148 2.07285C12.7011 0.788397 10.8614 0 8.65931 0C5.46937 0 2.71443 1.78937 1.37323 4.39371L4.01034 6.39573C4.67194 4.47347 6.50251 3.08269 8.65931 3.08269Z" fill="#EB4335"/>
</g>
<defs>
<clipPath id="clip0_57_379">
<rect width="16" height="16" fill="white" transform="translate(0.5)"/>
</clipPath>
</defs>
</svg>
