<svg width="130" height="41" viewBox="0 0 130 41" fill="none" xmlns="http://www.w3.org/2000/svg">
<path d="M33.888 39.028C33.9653 39.26 34.004 39.434 34.004 39.55C34.004 39.9367 33.8687 40.2847 33.598 40.594C33.3273 40.8647 32.9793 41 32.554 41H29.944C29.6347 41 29.364 40.9227 29.132 40.768C28.9 40.5747 28.726 40.3427 28.61 40.072L24.202 29.864L21.476 29.98H13.066L10.282 29.806L5.874 40.072C5.79667 40.3427 5.62267 40.5747 5.352 40.768C5.12 40.9227 4.84933 41 4.54 41H1.93C1.54333 41 1.19533 40.8647 0.886 40.594C0.615333 40.2847 0.48 39.9367 0.48 39.55C0.48 39.434 0.518667 39.26 0.596 39.028L4.134 29.516L7.962 19.714L15.27 1.328C15.386 1.05733 15.56 0.844664 15.792 0.689997C16.0627 0.496664 16.3333 0.399997 16.604 0.399997H17.822C18.0927 0.399997 18.344 0.496664 18.576 0.689997C18.8467 0.844664 19.04 1.05733 19.156 1.328L26.522 19.714L30.35 29.516L33.888 39.028ZM20.258 19.714L17.242 11.478L14.226 19.714L12.37 24.412H22.114L20.258 19.714ZM82.579 39.956C82.579 40.2267 82.4823 40.478 82.289 40.71C82.0957 40.9033 81.8443 41 81.535 41H78.287C78.0163 41 77.765 40.9033 77.533 40.71C77.3397 40.478 77.243 40.2267 77.243 39.956L77.069 24.528C77.069 22.4013 76.431 20.7387 75.155 19.54C73.879 18.3413 72.3517 17.742 70.573 17.742C68.833 17.742 67.325 18.3413 66.049 19.54C64.773 20.7387 64.135 22.4013 64.135 24.528L63.961 39.956C63.961 40.2267 63.8643 40.478 63.671 40.71C63.4777 40.9033 63.2263 41 62.917 41H59.669C59.3983 41 59.147 40.9033 58.915 40.71C58.7217 40.478 58.625 40.2267 58.625 39.956L58.393 24.528C58.393 22.4013 57.755 20.7387 56.479 19.54C55.203 18.3413 53.695 17.742 51.955 17.742C50.215 17.742 48.6877 18.3413 47.373 19.54C46.097 20.7387 45.459 22.4013 45.459 24.528L45.285 39.956C45.285 40.2267 45.1883 40.478 44.995 40.71C44.8017 40.9033 44.5503 41 44.241 41H40.993C40.7223 41 40.471 40.9033 40.239 40.71C40.0457 40.478 39.949 40.2267 39.949 39.956L39.775 23.89L39.833 13.914C39.833 13.6047 39.9297 13.3533 40.123 13.16C40.355 12.9667 40.6063 12.87 40.877 12.87H44.357C44.6277 12.87 44.8597 12.9667 45.053 13.16C45.2463 13.3533 45.3623 13.5853 45.401 13.856V15.364C46.1357 14.3587 47.083 13.6047 48.243 13.102C49.4417 12.5993 50.7563 12.348 52.187 12.348C53.9657 12.348 55.7057 12.7347 57.407 13.508C59.147 14.2813 60.539 15.3447 61.583 16.698C63.787 13.798 66.7837 12.348 70.573 12.348C73.241 12.348 75.4837 12.928 77.301 14.088C79.1183 15.2093 80.4717 16.698 81.361 18.554C82.289 20.41 82.753 22.4013 82.753 24.528L82.579 39.956ZM116.093 25.746C116.054 26.5193 115.687 27.196 114.991 27.776C114.295 28.356 113.521 28.646 112.671 28.646H94.9226C94.7679 28.646 94.6326 28.704 94.5166 28.82C94.4006 28.936 94.3619 29.0907 94.4006 29.284C94.9032 31.372 95.9472 32.9187 97.5326 33.924C99.1566 34.9293 101.051 35.432 103.217 35.432C104.338 35.432 105.517 35.1807 106.755 34.678C108.031 34.1753 109.133 33.4987 110.061 32.648C110.254 32.4547 110.505 32.358 110.815 32.358C111.163 32.358 111.414 32.4547 111.569 32.648L113.889 34.91C114.121 35.0647 114.237 35.316 114.237 35.664C114.237 35.9733 114.121 36.244 113.889 36.476C110.834 39.492 107.238 41 103.101 41C100.394 41 97.9192 40.362 95.6766 39.086C93.4726 37.81 91.7326 36.0893 90.4566 33.924C89.1806 31.72 88.5426 29.2647 88.5426 26.558C88.5426 25.63 88.5812 24.9147 88.6586 24.412C88.9679 21.976 89.7992 19.8493 91.1526 18.032C92.5059 16.2147 94.2072 14.8227 96.2566 13.856C98.3446 12.8507 100.607 12.348 103.043 12.348C103.429 12.348 104.009 12.3867 104.783 12.464C106.871 12.696 108.785 13.45 110.525 14.726C112.265 15.9633 113.637 17.4713 114.643 19.25C115.648 21.0287 116.151 22.7493 116.151 24.412L116.093 25.746ZM103.217 17.336C101.129 17.336 99.3112 17.9547 97.7646 19.192C96.2566 20.4293 95.2899 21.918 94.8646 23.658L94.8066 23.832C94.8066 23.9867 94.8646 24.122 94.9806 24.238C95.0966 24.354 95.2319 24.412 95.3866 24.412H110.293C110.486 24.412 110.641 24.3347 110.757 24.18C110.873 24.0253 110.892 23.8513 110.815 23.658C110.273 21.8793 109.403 20.3907 108.205 19.192C107.006 17.9547 105.343 17.336 103.217 17.336ZM123.933 31.14C123.662 31.14 123.43 31.0433 123.237 30.85C123.043 30.6567 122.947 30.4053 122.947 30.096L122.715 20.816V12.812L122.947 1.154C122.947 0.883332 123.043 0.651332 123.237 0.457996C123.43 0.264663 123.662 0.167997 123.933 0.167997H127.297C127.567 0.167997 127.799 0.264663 127.993 0.457996C128.225 0.651332 128.341 0.883332 128.341 1.154L128.515 12.812V20.816L128.341 30.096C128.341 30.3667 128.244 30.618 128.051 30.85C127.857 31.0433 127.606 31.14 127.297 31.14H123.933ZM121.961 37.288C121.961 38.2933 122.309 39.1633 123.005 39.898C123.739 40.594 124.609 40.942 125.615 40.942C126.62 40.942 127.471 40.594 128.167 39.898C128.901 39.1633 129.269 38.2933 129.269 37.288C129.269 36.2827 128.901 35.432 128.167 34.736C127.471 34.04 126.62 33.692 125.615 33.692C124.609 33.692 123.739 34.0593 123.005 34.794C122.309 35.49 121.961 36.3213 121.961 37.288Z" fill="#FF9920"/>
</svg>
