<svg width="18" height="18" viewBox="0 0 18 18" fill="none" xmlns="http://www.w3.org/2000/svg">
<g clip-path="url(#clip0_57_678)">
<path d="M9 0C7.21997 0 5.47991 0.527841 3.99987 1.51677C2.51983 2.50571 1.36628 3.91131 0.685088 5.55585C0.00389957 7.20038 -0.17433 9.00998 0.172937 10.7558C0.520204 12.5016 1.37737 14.1053 2.63604 15.364C3.89472 16.6226 5.49836 17.4798 7.24419 17.8271C8.99002 18.1743 10.7996 17.9961 12.4442 17.3149C14.0887 16.6337 15.4943 15.4802 16.4832 14.0001C17.4722 12.5201 18 10.78 18 9C17.9974 6.61384 17.0484 4.32616 15.3611 2.63889C13.6738 0.951621 11.3862 0.00258081 9 0V0ZM9 15.75C7.66498 15.75 6.35994 15.3541 5.2499 14.6124C4.13987 13.8707 3.27471 12.8165 2.76382 11.5831C2.25293 10.3497 2.11925 8.99251 2.3797 7.68314C2.64015 6.37377 3.28303 5.17103 4.22703 4.22703C5.17104 3.28302 6.37377 2.64015 7.68314 2.3797C8.99252 2.11925 10.3497 2.25292 11.5831 2.76381C12.8165 3.2747 13.8707 4.13987 14.6124 5.2499C15.3541 6.35993 15.75 7.66498 15.75 9C15.748 10.7896 15.0362 12.5053 13.7708 13.7708C12.5053 15.0362 10.7896 15.748 9 15.75Z" fill="#DD5002"/>
<path d="M7.87489 8.29119L6.07489 9.41619C5.94963 9.49461 5.84105 9.59695 5.75535 9.71735C5.66965 9.83775 5.60851 9.97385 5.57543 10.1179C5.54234 10.2619 5.53796 10.4111 5.56254 10.5568C5.58711 10.7025 5.64015 10.842 5.71864 10.9672C5.79706 11.0924 5.89939 11.201 6.01979 11.2867C6.14019 11.3724 6.2763 11.4336 6.42033 11.4667C6.56436 11.4997 6.7135 11.5041 6.85923 11.4795C7.00496 11.455 7.14442 11.4019 7.26964 11.3234L9.42139 9.97344C9.63728 9.83816 9.81515 9.65011 9.93824 9.42704C10.0613 9.20397 10.1256 8.95322 10.1249 8.69844V5.82895C10.1249 5.53058 10.0064 5.24443 9.79538 5.03345C9.5844 4.82248 9.29826 4.70395 8.99989 4.70395C8.70152 4.70395 8.41537 4.82248 8.20439 5.03345C7.99341 5.24443 7.87489 5.53058 7.87489 5.82895V8.29119Z" fill="#DD5002"/>
</g>
<defs>
<clipPath id="clip0_57_678">
<rect width="18" height="18" fill="white"/>
</clipPath>
</defs>
</svg>
